<?xml version="1.0" standalone="no"?>
<!DOCTYPE svg PUBLIC "-//W3C//DTD SVG 20010904//EN"
 "http://www.w3.org/TR/2001/REC-SVG-20010904/DTD/svg10.dtd">
<svg version="1.0" xmlns="http://www.w3.org/2000/svg"
 width="512.000000pt" height="512.000000pt" viewBox="0 0 512.000000 512.000000"
 preserveAspectRatio="xMidYMid meet">
<metadata>
Created by potrace 1.14, written by Peter Selinger 2001-2017
</metadata>
<g transform="translate(0.000000,512.000000) scale(0.100000,-0.100000)"
fill="#000000" stroke="none">
<path d="M490 4245 c-36 -7 -110 -25 -165 -39 -96 -26 -194 -39 -283 -40 l-43
0 3 -120 3 -119 95 -1 c146 -2 174 -25 185 -151 2 -27 4 -685 4 -1460 l1
-1410 157 0 158 0 7 60 c8 60 46 153 73 175 12 10 26 2 79 -47 164 -154 332
-222 563 -227 140 -3 247 11 359 49 69 23 189 79 204 95 3 3 23 18 44 34 222
166 372 474 402 826 31 362 -28 673 -170 885 -183 275 -505 406 -892 362 -185
-21 -368 -113 -477 -239 l-45 -52 0 626 c0 553 -2 633 -17 683 -19 67 -53 102
-104 110 -20 4 -45 8 -56 9 -11 2 -49 -2 -85 -9z m952 -1399 c146 -42 273
-189 338 -387 20 -63 23 -76 36 -149 4 -19 8 -44 10 -55 9 -46 18 -196 17
-285 -2 -324 -81 -571 -232 -721 -91 -91 -199 -131 -342 -125 -175 8 -312 100
-406 276 -87 161 -118 325 -116 600 1 138 7 201 38 355 11 54 71 203 106 261
44 74 131 162 197 197 97 53 241 66 354 33z"/>
<path d="M4177 3124 c-1 -1 -31 -5 -67 -8 -92 -9 -105 -11 -200 -40 -141 -43
-293 -121 -397 -204 l-43 -34 -1 28 c-1 66 -12 122 -32 164 -42 86 -131 102
-307 55 -52 -14 -106 -28 -120 -31 -14 -3 -41 -9 -60 -13 -36 -8 -118 -14
-202 -15 l-48 -1 0 -120 0 -120 108 -1 c86 -1 115 -5 139 -19 57 -33 57 -41
57 -780 0 -369 -3 -687 -7 -708 -11 -52 -59 -104 -110 -118 -22 -6 -69 -12
-104 -14 -34 -2 -66 -6 -71 -9 -7 -4 -10 -204 -4 -226 2 -7 1082 -7 1083 0 5
24 3 222 -2 226 -4 2 -40 7 -80 9 -129 9 -200 40 -225 101 -11 26 -14 158 -14
687 l0 655 35 31 c110 97 265 161 424 178 100 10 135 9 195 -4 158 -36 252
-151 293 -358 4 -22 8 -300 8 -617 0 -567 0 -577 -21 -605 -37 -50 -89 -66
-240 -72 -21 -1 -22 -5 -20 -118 l1 -118 488 0 487 0 0 117 c0 65 -3 118 -7
119 -146 13 -185 32 -204 102 -8 29 -13 212 -14 592 -2 303 -5 564 -8 580 -3
17 -8 50 -12 75 -54 361 -253 589 -545 625 -59 7 -149 13 -153 9z"/>
</g>
</svg>
